HIERARCHY
ROOT ui
{
	 OFFSET 0 0 0
	 CHANNELS 3 XPosition YPosition Z Position
	 EndSite
	 {
	 OFFSET 0 -1 0
	 }
}
ROOT li
{
	 OFFSET 0 0 0
	 CHANNELS 3 XPosition YPosition Z Position
	 EndSite
	 {
	 OFFSET 0 -1 0
	 }
}
ROOT ul
{
	 OFFSET 0 0 0
	 CHANNELS 3 XPosition YPosition Z Position
	 EndSite
	 {
	 OFFSET 0 -1 0
	 }
}
ROOT ll
{
	 OFFSET 0 0 0
	 CHANNELS 3 XPosition YPosition Z Position
	 EndSite
	 {
	 OFFSET 0 -1 0
	 }
}
ROOT tt
{
	 OFFSET 0 0 0
	 CHANNELS 3 XPosition YPosition Z Position
	 EndSite
	 {
	 OFFSET 0 -1 0
	 }
}
ROOT tb
{
	 OFFSET 0 0 0
	 CHANNELS 3 XPosition YPosition Z Position
	 EndSite
	 {
	 OFFSET 0 -1 0
	 }
}
ROOT td
{
	 OFFSET 0 0 0
	 CHANNELS 3 XPosition YPosition Z Position
	 EndSite
	 {
	 OFFSET 0 -1 0
	 }
}
ROOT v
{
	 OFFSET 0 0 0
	 CHANNELS 3 XPosition YPosition Z Position
	 EndSite
	 {
	 OFFSET 0 -1 0
	 }
}
ROOT bn
{
	 OFFSET 0 0 0
	 CHANNELS 3 XPosition YPosition Z Position
	 EndSite
	 {
	 OFFSET 0 -1 0
	 }
}
MOTION
Frames: 27
Frame Time: 0.002
0.016897790908813475	0.0011097550392150878	0		0.454985595703125	-2.287799072265625	0		-1.06379345703125	0.2188970642089844	0		-0.6569314575195313	-2.457694580078125	0		1.7491363525390624	-0.26177899169921875	0		3.28863330078125	-0.22454994201660156	0		4.50763134765625	-0.04782071685791016	0		5.73939208984375	0.21269155883789062	0		-0.38822833251953126	5.86587158203125	0		
-0.06372304916381837	-0.0010930030345916747	0		0.4554364013671875	-2.287874755859375	0		-0.9883951416015625	0.21797677612304686	0		-0.6584990234375	-2.45976953125	0		1.746494140625	-0.2667968139648437	0		3.299880859375	-0.2396899871826172	0		4.50988671875	-0.061839611053466796	0		5.75042138671875	0.22110247802734376	0		-0.4068780517578125	5.870986328125	0		
0.014679844856262208	-0.003026889085769653	0		0.46684716796875	-2.2930703125	0		-1.096920654296875	0.22405335998535156	0		-0.718037109375	-2.4602177734375	0		1.7469180908203126	-0.2668465576171875	0		3.300412841796875	-0.22970819091796876	0		4.50829541015625	-0.0628104019165039	0		5.74720263671875	0.23163255310058595	0		-0.3725181274414063	5.87652294921875	0		
0.01815900993347168	8.525580167770385E-4	0		0.44337921142578124	-2.28888818359375	0		-1.0585028076171874	0.22252903747558594	0		-0.6425829467773437	-2.46413427734375	0		1.7414361572265624	-0.25983099365234374	0		3.2876162109375	-0.25158024597167966	0		4.51566748046875	-0.06887299346923828	0		5.747515625	0.2317022705078125	0		-0.3722138671875	5.87642626953125	0		
0.013663389205932618	0.004816065788269043	0		0.46095977783203124	-2.28315234375	0		-1.0580472412109374	0.2224124755859375	0		-0.652974853515625	-2.456122314453125	0		1.7378494873046875	-0.26483572387695314	0		3.31621142578125	-0.23989414978027343	0		4.50206591796875	-0.07470194244384766	0		5.75145947265625	0.242072998046875	0		-0.37189630126953127	5.876326171875	0		
0.019110177993774412	6.688749790191651E-4	0		0.4594895324707031	-2.285212158203125	0		-0.9875130615234375	0.2265353546142578	0		-0.6184749145507813	-2.461599853515625	0		1.7343040771484375	-0.26883990478515624	0		3.284515869140625	-0.25755355834960936	0		4.51440673828125	-0.08880435180664062	0		5.75250244140625	0.23696688842773436	0		-0.37255181884765626	5.8772333984375	0		
0.01658753776550293	-0.003396074056625366	0		0.43107827758789063	-2.28498486328125	0		-1.0629951171875	0.22722567749023437	0		-0.653848388671875	-2.4583291015625	0		1.7218114013671875	-0.27074728393554687	0		3.285043701171875	-0.25755548095703124	0		4.50394091796875	-0.08765209197998047	0		5.764310546875	0.2419798126220703	0		-0.38732089233398437	5.8662861328125	0		
0.0171339168548584	-0.0034987499713897705	0		0.46271774291992185	-2.28340673828125	0		-1.0474248046875	0.2299272766113281	0		-0.6532229614257813	-2.458453369140625	0		1.728291015625	-0.2778590087890625	0		3.308275146484375	-0.28779782104492185	0		4.504318359375	-0.10360942840576172	0		5.76902880859375	0.25238983154296873	0		-0.37086785888671875	5.87499853515625	0		
0.020740741729736327	3.604699969291687E-4	0		0.4503528137207031	-2.2843603515625	0		-1.1147794189453124	0.2385072021484375	0		-0.71741845703125	-2.443891845703125	0		1.735960693359375	-0.268982177734375	0		3.310137939453125	-0.26080194091796877	0		4.5148857421875	-0.10366580200195312	0		5.7808837890625	0.260907958984375	0		-0.23727371215820312	5.8964541015625	0		
0.021309938430786133	2.4609799683094025E-4	0		0.49201861572265626	-2.283894775390625	0		-0.967174560546875	0.24178363037109374	0		-0.6478545532226563	-2.453768798828125	0		1.719466796875	-0.275848876953125	0		3.296398681640625	-0.2906384582519531	0		4.5034169921875	-0.10747852325439453	0		5.76632373046875	0.26321173095703126	0		-0.38626458740234376	5.86591796875	0		
-0.05511738204956055	0.00194228994846344	0		0.42879098510742186	-2.272317626953125	0		-1.0797159423828124	0.2338213348388672	0		-0.659131103515625	-2.447789794921875	0		1.727120361328125	-0.26797378540039063	0		3.296968505859375	-0.29062350463867187	0		4.50584130859375	-0.1204342041015625	0		5.7794501953125	0.23713473510742186	0		-0.3869278869628906	5.867791015625	0		
0.0223969783782959	-6.900000153109432E-7	0		0.4632790832519531	-2.285784912109375	0		-1.0421036376953126	0.242256103515625	0		-0.6615172119140625	-2.449913818359375	0		1.719566650390625	-0.27694168090820315	0		3.303425537109375	-0.298671630859375	0		4.50029150390625	-0.12830345153808595	0		5.77854150390625	0.2685201416015625	0		-0.371546875	5.87748779296875	0		
-0.05814322662353515	-0.002281393051147461	0		0.438920654296875	-2.280635498046875	0		-1.0736783447265625	0.2374132080078125	0		-0.6479967041015625	-2.457213134765625	0		1.720065673828125	-0.27699969482421877	0		3.31299853515625	-0.29175491333007814	0		4.5007841796875	-0.12823893737792968	0		5.778314453125	0.29988540649414064	0		-0.3713190002441406	5.877337890625	0		
0.023318609237670897	-2.729910016059876E-4	0		0.4684544982910156	-2.281060302734375	0		-1.0211311645507812	0.24868003845214845	0		-0.6533170166015625	-2.444320068359375	0		1.7205126953125	-0.27706427001953127	0		3.315215576171875	-0.31376889038085937	0		4.501224609375	-0.1281807403564453	0		5.7949794921875	0.28755731201171875	0		-0.3711436767578125	5.87718115234375	0		
-0.053289497375488284	0.0013838720321655274	0		0.44195291137695314	-2.27890576171875	0		-1.064710205078125	0.25394721984863283	0		-0.6429177856445313	-2.452599609375	0		1.729880615234375	-0.279230712890625	0		3.324678955078125	-0.3068667297363281	0		4.51040869140625	-0.1472257843017578	0		5.80797802734375	0.2614638671875	0		-0.38612457275390627	5.8671748046875	0		
0.02401435089111328	-5.722090005874634E-4	0		0.4843743896484375	-2.278477783203125	0		-1.026404296875	0.2533541259765625	0		-0.6544342651367188	-2.446656005859375	0		1.7231175537109376	-0.28823944091796877	0		3.31474072265625	-0.3327769775390625	0		4.5107333984375	-0.14719194030761718	0		5.79979150390625	0.2947004089355469	0		-0.4211004943847656	5.86236865234375	0		
-0.056750171661376955	-0.002893474102020264	0		0.4587479858398438	-2.276350341796875	0		-1.026152099609375	0.2531531982421875	0		-0.6560967407226562	-2.448821533203125	0		1.75828564453125	-0.29869427490234374	0		3.315015869140625	-0.3328076782226562	0		4.5067841796875	-0.1681332244873047	0		5.80978173828125	0.25131787109375	0		-0.3870079345703125	5.8678388671875	0		
0.021447811126708984	-0.004867071151733398	0		0.44301275634765624	-2.279335693359375	0		-1.09790380859375	0.2576911926269531	0		-0.7147821655273437	-2.447404052734375	0		1.7155213623046874	-0.2973542785644531	0		3.324115966796875	-0.34494686889648435	0		4.50498193359375	-0.1701162872314453	0		5.81787841796875	0.2736861572265625	0		-0.3699266662597656	5.87548193359375	0		
-0.045252113342285155	0.007648908138275147	0		0.4493323059082031	-2.27255615234375	0		-1.0786683349609374	0.2642865295410156	0		-0.6474603271484375	-2.44128955078125	0		1.7397337646484374	-0.2947176818847656	0		3.322536865234375	-0.32199118041992186	0		4.50718115234375	-0.16816181945800782	0		5.81800439453125	0.2737184753417969	0		-0.3709363708496094	5.87630712890625	0		
0.02480975914001465	-0.0012473020553588868	0		0.4655862121582031	-2.268885009765625	0		-1.0554678955078125	0.2698414001464844	0		-0.6862293701171875	-2.440086181640625	0		1.7309110107421875	-0.29275271606445313	0		3.308376953125	-0.3529272766113281	0		4.50022119140625	-0.17913633728027345	0		5.81753125	0.3048599853515625	0		-0.3870403747558594	5.868283203125	0		
0.024948299407958983	-0.001428576946258545	0		0.4617299499511719	-2.27401416015625	0		-1.0553360595703125	0.26963339233398437	0		-0.6510834350585938	-2.445642822265625	0		1.7109453125	-0.3036866760253906	0		3.32351318359375	-0.35418063354492185	0		4.50222119140625	-0.19322657775878907	0		5.82253662109375	0.28391217041015626	0		-0.42210662841796875	5.8624501953125	0		
0.02205111312866211	-0.00558277416229248	0		0.43494094848632814	-2.2719150390625	0		-1.094196044921875	0.26982470703125	0		-0.7387841796875	-2.43494384765625	0		1.704013671875	-0.31176593017578125	0		3.3105419921875	-0.36616604614257814	0		4.49236865234375	-0.19321952819824217	0		5.82625	0.29408538818359375	0		-0.3880113525390625	5.86890869140625	0		
0.025249452590942384	-0.0018013720512390138	0		0.43513333129882814	-2.272096435546875	0		-1.0890020751953124	0.27356866455078127	0		-0.652716064453125	-2.44801904296875	0		1.697084716796875	-0.3208562316894531	0		3.31080712890625	-0.3563041076660156	0		4.4974580078125	-0.20038961791992188	0		5.833626953125	0.32487643432617186	0		-0.37383203125	5.8795712890625	0		
0.025424545288085937	-0.0019901009798049926	0		0.4414029541015625	-2.265342529296875	0		-1.084789306640625	0.27732745361328126	0		-0.724430419921875	-2.439482177734375	0		1.6903245849609374	-0.31495663452148437	0		3.322720703125	-0.3825795593261719	0		4.50255322265625	-0.2085823974609375	0		5.84298046875	0.31404617309570315	0		-0.373718017578125	5.87937841796875	0		
0.02065519714355469	0.001873304009437561	0		0.4665629272460938	-2.26978173828125	0		-1.0456031494140625	0.2767373046875	0		-0.6632306518554687	-2.440294189453125	0		1.6914039306640625	-0.3261444702148438	0		3.331993408203125	-0.3748409118652344	0		4.49562255859375	-0.22067350769042968	0		5.8431162109375	0.31377706909179687	0		-0.4217205810546875	5.86367822265625	0		
-0.051174949645996094	-5.770379900932312E-4	0		0.4377621765136719	-2.26966943359375	0		-1.09530224609375	0.2870619201660156	0		-0.6650530395507812	-2.442457275390625	0		1.7274970703125	-0.33669256591796876	0		3.3160078125	-0.3928586730957031	0		4.5007373046875	-0.22890489196777344	0		5.8390498046875	0.33086993408203125	0		-0.40841552734375	5.87436181640625	0		
0.0260057373046875	-0.0025366389751434325	0		0.46289523315429687	-2.2751015625	0		-1.057108154296875	0.28650369262695313	0		-0.6689090576171876	-2.446589599609375	0		1.720599365234375	-0.34580422973632813	0		3.316201171875	-0.3930487976074219	0		4.49788037109375	-0.23406924438476562	0		5.8484169921875	0.31991397094726565	0		-0.37314666748046876	5.8788310546875	0		
